<svg width="32" height="32" viewBox="0 0 32 32" fill="none" xmlns="http://www.w3.org/2000/svg">
<rect width="32" height="32" rx="16" fill="#57EFB4"/>
<path fill-rule="evenodd" clip-rule="evenodd" d="M16.4994 8.8501C12.8277 8.8501 9.84998 11.8274 9.84998 15.5003C9.84998 18.438 11.7552 20.9307 14.3977 21.8105C14.7305 21.8713 14.8517 21.6659 14.8517 21.4896C14.8517 21.3316 14.846 20.9136 14.8427 20.3588C12.993 20.7605 12.6027 19.4672 12.6027 19.4672C12.3002 18.6989 11.8642 18.4943 11.8642 18.4943C11.2604 18.082 11.9099 18.0902 11.9099 18.0902C12.5774 18.1371 12.9285 18.7756 12.9285 18.7756C13.5217 19.7917 14.4851 19.4982 14.864 19.328C14.9244 18.8985 15.0962 18.6054 15.2861 18.4392C13.8095 18.271 12.2569 17.7007 12.2569 15.1525C12.2569 14.4262 12.5162 13.8331 12.9416 13.3681C12.873 13.1999 12.6448 12.5238 13.0069 11.6082C13.0069 11.6082 13.5649 11.4294 14.8354 12.2895C15.3657 12.1421 15.9348 12.0687 16.5002 12.0658C17.0652 12.0687 17.6339 12.1421 18.165 12.2895C19.4346 11.4294 19.9918 11.6082 19.9918 11.6082C20.3548 12.5238 20.1266 13.1999 20.0584 13.3681C20.4846 13.8331 20.7418 14.4262 20.7418 15.1525C20.7418 17.7073 19.1868 18.2694 17.7057 18.4339C17.9441 18.6393 18.1568 19.0451 18.1568 19.6656C18.1568 20.5543 18.1487 21.2716 18.1487 21.4896C18.1487 21.6676 18.2687 21.8746 18.6059 21.8096C21.2464 20.9283 23.15 18.4376 23.15 15.5003C23.15 11.8274 20.1723 8.8501 16.4994 8.8501Z" fill="#222233"/>
</svg>
