<svg width="15" height="12" viewBox="0 0 15 12" fill="none" xmlns="http://www.w3.org/2000/svg">
<path fill-rule="evenodd" clip-rule="evenodd" d="M7.23336 3.69632C7.23336 1.96887 8.63335 0.568604 10.36 0.568604C11.3736 0.568604 12.183 1.04807 12.7254 1.74388C13.3079 1.6247 13.8557 1.40916 14.3513 1.11511C14.1559 1.72601 13.7424 2.23963 13.2033 2.56466C13.2038 2.56571 13.2042 2.56677 13.2047 2.56782C13.7334 2.50364 14.2364 2.36305 14.7048 2.15549L14.7037 2.15718C14.3667 2.66186 13.9431 3.10739 13.4561 3.47037C13.4823 3.64675 13.4956 3.8243 13.4956 4.00082C13.4956 7.68713 10.6873 11.9746 5.52122 11.9746C3.93906 11.9746 2.46544 11.511 1.22505 10.7152C0.992632 10.5661 0.925108 10.2568 1.07423 10.0244C1.0874 10.0038 1.10183 9.98463 1.11734 9.96663C1.20582 9.82023 1.37438 9.73093 1.5554 9.75223C2.47066 9.86013 3.38568 9.74853 4.19219 9.39623C3.39226 9.04343 2.77129 8.35978 2.50204 7.51977C2.45359 7.36863 2.48835 7.20314 2.59351 7.08425C2.59716 7.08013 2.60087 7.07609 2.60464 7.07213C1.96391 6.50822 1.55973 5.68211 1.55973 4.76146V4.72762C1.55973 4.56817 1.64411 4.42062 1.78155 4.33977C1.82671 4.3132 1.87537 4.29514 1.92532 4.28561C1.70549 3.86157 1.58116 3.37987 1.58116 2.86961C1.58116 2.40168 1.58384 1.81195 1.91332 1.28084C1.98718 1.16178 2.10758 1.08918 2.2364 1.07198C2.42588 1.0124 2.64087 1.06972 2.77406 1.23305C3.86536 2.57129 5.44066 3.49586 7.23366 3.73964L7.23336 3.69632ZM5.52122 10.9746C4.73387 10.9746 3.97781 10.8435 3.27248 10.6023C4.13012 10.4538 4.95307 10.1159 5.66218 9.56023C5.81211 9.44273 5.87182 9.24353 5.81126 9.06293C5.7507 8.88237 5.583 8.75946 5.39255 8.7561C4.68968 8.74369 4.06712 8.39719 3.67793 7.86848C3.86828 7.85309 4.05428 7.82042 4.23445 7.7717C4.43603 7.71719 4.57363 7.53117 4.56674 7.32246C4.55985 7.11375 4.41029 6.93721 4.20555 6.8961C3.42694 6.7398 2.79883 6.16767 2.56169 5.42177C2.76255 5.47028 2.97102 5.49913 3.18482 5.50613C3.38563 5.5127 3.56646 5.38536 3.62795 5.19408C3.68943 5.0028 3.61666 4.79394 3.44963 4.68227C2.86523 4.29158 2.48116 3.62467 2.48116 2.86961C2.48116 2.70216 2.48352 2.55271 2.49355 2.41722C3.85115 3.79916 5.70873 4.68934 7.77588 4.79341C7.93225 4.80129 8.08328 4.73546 8.18395 4.61556C8.28463 4.49565 8.32332 4.33551 8.28851 4.18287C8.25255 4.0252 8.23336 3.86287 8.23336 3.69632C8.23336 2.52088 9.18591 1.5686 10.36 1.5686C11.5943 1.5686 12.4956 2.71211 12.4956 4.00082C12.4956 7.25712 10.0202 10.9746 5.52122 10.9746Z" fill="white"/>
</svg>
