<svg width="9" height="14" viewBox="0 0 9 14" fill="none" xmlns="http://www.w3.org/2000/svg">
<path fill-rule="evenodd" clip-rule="evenodd" d="M0.3825 1.2957C0.46241 1.11435 0.64188 0.997314 0.84005 0.997314H8.5C8.7761 0.997314 9 1.22117 9 1.49731V5.50003C9 5.77617 8.7761 6.00003 8.5 6.00003H5.63521L8.5288 9.1625C8.6626 9.30873 8.6974 9.52018 8.6175 9.70157C8.5376 9.88296 8.3582 10 8.16 10H5V13.5C5 13.7022 4.87818 13.8845 4.69134 13.9619C4.5045 14.0393 4.28945 13.9966 4.14645 13.8536L0.14645 9.85358C0.05268 9.75982 0 9.63264 0 9.50003V5.50003C0 5.22389 0.22386 5.00003 0.5 5.00003H3.36531L0.47105 1.83471C0.33732 1.68847 0.30259 1.47704 0.3825 1.2957ZM4.72032 5.00003L1.97474 1.99731H8V5.00003H4.72032ZM4.27978 6.00003H1V9.00003H4.5H7.0247L4.27978 6.00003ZM1.70711 10L4 12.2929V10H1.70711Z" fill="white"/>
</svg>
