<svg width="24" height="28" viewBox="0 0 24 28" fill="none" xmlns="http://www.w3.org/2000/svg">
<path fill-rule="evenodd" clip-rule="evenodd" d="M0.599976 8.93332C0.599976 15.2236 5.64559 17.8 10.7333 17.8V26.6667C10.7333 27.3661 11.3004 27.9333 12 27.9333C12.6995 27.9333 13.2666 27.3661 13.2666 26.6667V17.8V2.85332H15.8V26.6667C15.8 27.3661 16.3671 27.9333 17.0666 27.9333C17.7662 27.9333 18.3333 27.3661 18.3333 26.6667V2.85332H22.1333C22.9029 2.85332 23.5266 2.22951 23.5266 1.45998C23.5266 0.690458 22.9029 0.0666504 22.1333 0.0666504H17.0666H13.2666H12H10.7333C5.64559 0.0666504 0.599976 2.64305 0.599976 8.93332Z" fill="white"/>
</svg>
